<region> lovel=1 hivel=15 amp_velcurve_15=1 sample=../samples/toms/tm8rock/stx/snare_on/rms/tm8wrock_stxr_rms_001x.wav
<region> lovel=16 hivel=31 amp_velcurve_31=1 sample=../samples/toms/tm8rock/stx/snare_on/rms/tm8wrock_stxr_rms_003x.wav
<region> lovel=32 hivel=47 amp_velcurve_47=1 sample=../samples/toms/tm8rock/stx/snare_on/rms/tm8wrock_stxr_rms_008x.wav
<region> lovel=48 hivel=63 amp_velcurve_63=1 sample=../samples/toms/tm8rock/stx/snare_on/rms/tm8wrock_stxr_rms_011x.wav
<region> lovel=64 hivel=79 amp_velcurve_79=1 sample=../samples/toms/tm8rock/stx/snare_on/rms/tm8wrock_stxr_rms_013x.wav
<region> lovel=80 hivel=95 amp_velcurve_95=1 sample=../samples/toms/tm8rock/stx/snare_on/rms/tm8wrock_stxr_rms_029x.wav
<region> lovel=96 hivel=111 amp_velcurve_111=1 sample=../samples/toms/tm8rock/stx/snare_on/rms/tm8wrock_stxr_rms_030x.wav
<region> lovel=112 hivel=127 amp_velcurve_127=1 sample=../samples/toms/tm8rock/stx/snare_on/rms/tm8wrock_stxr_rms_031x.wav
